<mxfile host="app.diagrams.net" agent="Mozilla/5.0 (Windows NT 10.0; Win64; x64) AppleWebKit/537.36 (KHTML, like Gecko) Chrome/131.0.0.0 Safari/537.36" version="25.0.1">
  <diagram id="C5RBs43oDa-KdzZeNtuy" name="Page-1">
    <mxGraphModel grid="1" page="1" gridSize="10" guides="1" tooltips="1" connect="1" arrows="1" fold="1" pageScale="1" pageWidth="827" pageHeight="1169" math="0" shadow="0">
      <root>
        <mxCell id="WIyWlLk6GJQsqaUBKTNV-0" />
        <mxCell id="WIyWlLk6GJQsqaUBKTNV-1" parent="WIyWlLk6GJQsqaUBKTNV-0" />
        <mxCell id="WIyWlLk6GJQsqaUBKTNV-2" value="" style="rounded=0;html=1;jettySize=auto;orthogonalLoop=1;fontSize=11;endArrow=block;endFill=0;endSize=8;strokeWidth=1;shadow=0;labelBackgroundColor=none;edgeStyle=orthogonalEdgeStyle;" edge="1" parent="WIyWlLk6GJQsqaUBKTNV-1" source="WIyWlLk6GJQsqaUBKTNV-3" target="WIyWlLk6GJQsqaUBKTNV-6">
          <mxGeometry relative="1" as="geometry" />
        </mxCell>
        <mxCell id="WIyWlLk6GJQsqaUBKTNV-3" value="num = 1, Sum =0" style="rounded=1;whiteSpace=wrap;html=1;fontSize=12;glass=0;strokeWidth=1;shadow=0;" vertex="1" parent="WIyWlLk6GJQsqaUBKTNV-1">
          <mxGeometry x="160" y="80" width="120" height="40" as="geometry" />
        </mxCell>
        <mxCell id="2rePoQvWjfNQZ2Z3Qyoi-3" value="" style="edgeStyle=orthogonalEdgeStyle;rounded=0;orthogonalLoop=1;jettySize=auto;html=1;" edge="1" parent="WIyWlLk6GJQsqaUBKTNV-1" source="WIyWlLk6GJQsqaUBKTNV-6" target="2rePoQvWjfNQZ2Z3Qyoi-2">
          <mxGeometry relative="1" as="geometry" />
        </mxCell>
        <mxCell id="WIyWlLk6GJQsqaUBKTNV-6" value="num&amp;nbsp; &amp;lt; 2" style="rhombus;whiteSpace=wrap;html=1;shadow=0;fontFamily=Helvetica;fontSize=12;align=center;strokeWidth=1;spacing=6;spacingTop=-4;" vertex="1" parent="WIyWlLk6GJQsqaUBKTNV-1">
          <mxGeometry x="170" y="170" width="100" height="80" as="geometry" />
        </mxCell>
        <mxCell id="2rePoQvWjfNQZ2Z3Qyoi-5" value="" style="edgeStyle=orthogonalEdgeStyle;rounded=0;orthogonalLoop=1;jettySize=auto;html=1;" edge="1" parent="WIyWlLk6GJQsqaUBKTNV-1" source="2rePoQvWjfNQZ2Z3Qyoi-2" target="2rePoQvWjfNQZ2Z3Qyoi-4">
          <mxGeometry relative="1" as="geometry" />
        </mxCell>
        <mxCell id="2rePoQvWjfNQZ2Z3Qyoi-2" value="i = 2" style="whiteSpace=wrap;html=1;shadow=0;strokeWidth=1;spacing=6;spacingTop=-4;" vertex="1" parent="WIyWlLk6GJQsqaUBKTNV-1">
          <mxGeometry x="160" y="340" width="120" height="60" as="geometry" />
        </mxCell>
        <mxCell id="2rePoQvWjfNQZ2Z3Qyoi-8" value="" style="edgeStyle=orthogonalEdgeStyle;rounded=0;orthogonalLoop=1;jettySize=auto;html=1;" edge="1" parent="WIyWlLk6GJQsqaUBKTNV-1" source="2rePoQvWjfNQZ2Z3Qyoi-4" target="2rePoQvWjfNQZ2Z3Qyoi-7">
          <mxGeometry relative="1" as="geometry" />
        </mxCell>
        <mxCell id="2rePoQvWjfNQZ2Z3Qyoi-12" value="" style="edgeStyle=orthogonalEdgeStyle;rounded=0;orthogonalLoop=1;jettySize=auto;html=1;" edge="1" parent="WIyWlLk6GJQsqaUBKTNV-1" source="2rePoQvWjfNQZ2Z3Qyoi-4">
          <mxGeometry relative="1" as="geometry">
            <mxPoint x="380" y="510" as="targetPoint" />
          </mxGeometry>
        </mxCell>
        <mxCell id="2rePoQvWjfNQZ2Z3Qyoi-4" value="num% i == 0" style="rhombus;whiteSpace=wrap;html=1;shadow=0;strokeWidth=1;spacing=6;spacingTop=-4;" vertex="1" parent="WIyWlLk6GJQsqaUBKTNV-1">
          <mxGeometry x="160" y="470" width="120" height="80" as="geometry" />
        </mxCell>
        <mxCell id="2rePoQvWjfNQZ2Z3Qyoi-10" value="" style="edgeStyle=orthogonalEdgeStyle;rounded=0;orthogonalLoop=1;jettySize=auto;html=1;" edge="1" parent="WIyWlLk6GJQsqaUBKTNV-1" source="2rePoQvWjfNQZ2Z3Qyoi-7" target="2rePoQvWjfNQZ2Z3Qyoi-9">
          <mxGeometry relative="1" as="geometry" />
        </mxCell>
        <mxCell id="2rePoQvWjfNQZ2Z3Qyoi-7" value="i = i + 1" style="whiteSpace=wrap;html=1;shadow=0;strokeWidth=1;spacing=6;spacingTop=-4;" vertex="1" parent="WIyWlLk6GJQsqaUBKTNV-1">
          <mxGeometry x="160" y="640" width="120" height="60" as="geometry" />
        </mxCell>
        <mxCell id="2rePoQvWjfNQZ2Z3Qyoi-28" value="" style="edgeStyle=orthogonalEdgeStyle;rounded=0;orthogonalLoop=1;jettySize=auto;html=1;" edge="1" parent="WIyWlLk6GJQsqaUBKTNV-1" source="2rePoQvWjfNQZ2Z3Qyoi-9" target="2rePoQvWjfNQZ2Z3Qyoi-27">
          <mxGeometry relative="1" as="geometry" />
        </mxCell>
        <mxCell id="2rePoQvWjfNQZ2Z3Qyoi-9" value="i &amp;gt; num" style="rhombus;whiteSpace=wrap;html=1;shadow=0;strokeWidth=1;spacing=6;spacingTop=-4;" vertex="1" parent="WIyWlLk6GJQsqaUBKTNV-1">
          <mxGeometry x="160" y="770" width="120" height="80" as="geometry" />
        </mxCell>
        <mxCell id="2rePoQvWjfNQZ2Z3Qyoi-13" value="sum = sum + num" style="rounded=0;whiteSpace=wrap;html=1;" vertex="1" parent="WIyWlLk6GJQsqaUBKTNV-1">
          <mxGeometry x="380" y="480" width="120" height="60" as="geometry" />
        </mxCell>
        <mxCell id="2rePoQvWjfNQZ2Z3Qyoi-18" value="" style="endArrow=classic;html=1;rounded=0;entryX=1;entryY=0.5;entryDx=0;entryDy=0;" edge="1" parent="WIyWlLk6GJQsqaUBKTNV-1" target="2rePoQvWjfNQZ2Z3Qyoi-7">
          <mxGeometry width="50" height="50" relative="1" as="geometry">
            <mxPoint x="440" y="540" as="sourcePoint" />
            <mxPoint x="490" y="490" as="targetPoint" />
            <Array as="points">
              <mxPoint x="440" y="670" />
            </Array>
          </mxGeometry>
        </mxCell>
        <mxCell id="2rePoQvWjfNQZ2Z3Qyoi-19" value="No" style="text;html=1;align=center;verticalAlign=middle;whiteSpace=wrap;rounded=0;" vertex="1" parent="WIyWlLk6GJQsqaUBKTNV-1">
          <mxGeometry x="90" y="780" width="60" height="30" as="geometry" />
        </mxCell>
        <mxCell id="2rePoQvWjfNQZ2Z3Qyoi-21" value="No" style="text;html=1;align=center;verticalAlign=middle;whiteSpace=wrap;rounded=0;" vertex="1" parent="WIyWlLk6GJQsqaUBKTNV-1">
          <mxGeometry x="230" y="580" width="60" height="30" as="geometry" />
        </mxCell>
        <mxCell id="2rePoQvWjfNQZ2Z3Qyoi-22" value="Yes" style="text;html=1;align=center;verticalAlign=middle;whiteSpace=wrap;rounded=0;" vertex="1" parent="WIyWlLk6GJQsqaUBKTNV-1">
          <mxGeometry x="300" y="470" width="60" height="30" as="geometry" />
        </mxCell>
        <mxCell id="2rePoQvWjfNQZ2Z3Qyoi-26" value="" style="endArrow=classic;html=1;rounded=0;" edge="1" parent="WIyWlLk6GJQsqaUBKTNV-1">
          <mxGeometry width="50" height="50" relative="1" as="geometry">
            <mxPoint x="160" y="810" as="sourcePoint" />
            <mxPoint x="220" y="430" as="targetPoint" />
            <Array as="points">
              <mxPoint x="80" y="810" />
              <mxPoint x="80" y="430" />
            </Array>
          </mxGeometry>
        </mxCell>
        <mxCell id="2rePoQvWjfNQZ2Z3Qyoi-30" value="" style="edgeStyle=orthogonalEdgeStyle;rounded=0;orthogonalLoop=1;jettySize=auto;html=1;" edge="1" parent="WIyWlLk6GJQsqaUBKTNV-1" source="2rePoQvWjfNQZ2Z3Qyoi-27" target="2rePoQvWjfNQZ2Z3Qyoi-29">
          <mxGeometry relative="1" as="geometry" />
        </mxCell>
        <mxCell id="2rePoQvWjfNQZ2Z3Qyoi-32" value="" style="edgeStyle=orthogonalEdgeStyle;rounded=0;orthogonalLoop=1;jettySize=auto;html=1;" edge="1" parent="WIyWlLk6GJQsqaUBKTNV-1" source="2rePoQvWjfNQZ2Z3Qyoi-27" target="2rePoQvWjfNQZ2Z3Qyoi-31">
          <mxGeometry relative="1" as="geometry" />
        </mxCell>
        <mxCell id="2rePoQvWjfNQZ2Z3Qyoi-27" value="num &amp;gt;= 20" style="rhombus;whiteSpace=wrap;html=1;shadow=0;strokeWidth=1;spacing=6;spacingTop=-4;" vertex="1" parent="WIyWlLk6GJQsqaUBKTNV-1">
          <mxGeometry x="380" y="770" width="80" height="80" as="geometry" />
        </mxCell>
        <mxCell id="2rePoQvWjfNQZ2Z3Qyoi-29" value="Sum" style="ellipse;whiteSpace=wrap;html=1;shadow=0;strokeWidth=1;spacing=6;spacingTop=-4;" vertex="1" parent="WIyWlLk6GJQsqaUBKTNV-1">
          <mxGeometry x="540" y="770" width="80" height="80" as="geometry" />
        </mxCell>
        <mxCell id="2rePoQvWjfNQZ2Z3Qyoi-31" value="num = num + 1" style="whiteSpace=wrap;html=1;shadow=0;strokeWidth=1;spacing=6;spacingTop=-4;" vertex="1" parent="WIyWlLk6GJQsqaUBKTNV-1">
          <mxGeometry x="360" y="940" width="120" height="60" as="geometry" />
        </mxCell>
        <mxCell id="2rePoQvWjfNQZ2Z3Qyoi-33" value="" style="endArrow=classic;html=1;rounded=0;" edge="1" parent="WIyWlLk6GJQsqaUBKTNV-1">
          <mxGeometry width="50" height="50" relative="1" as="geometry">
            <mxPoint x="360" y="970" as="sourcePoint" />
            <mxPoint x="220" y="140" as="targetPoint" />
            <Array as="points">
              <mxPoint x="400" y="960" />
              <mxPoint x="40" y="960" />
              <mxPoint x="40" y="140" />
            </Array>
          </mxGeometry>
        </mxCell>
      </root>
    </mxGraphModel>
  </diagram>
</mxfile>
